<svg id="visual" viewBox="0 0 960 540" width="960" height="540" xmlns="http://www.w3.org/2000/svg" xmlns:xlink="http://www.w3.org/1999/xlink" version="1.1"><g stroke-width="1" stroke-linejoin="bevel"><path d="M437.7 264L397.7 221L340 237Z" fill="#490000" stroke="#490000"></path><path d="M340 237L422.7 336L437.7 264Z" fill="#2a0301" stroke="#2a0301"></path><path d="M340 237L360 382L422.7 336Z" fill="#270201" stroke="#270201"></path><path d="M193.3 401L342 412L360 382Z" fill="#390302" stroke="#390302"></path><path d="M463.7 460L492.3 365L422.7 336Z" fill="#310402" stroke="#310402"></path><path d="M463.7 460L422.7 336L360 382Z" fill="#2a0301" stroke="#2a0301"></path><path d="M422.7 336L528.3 291L437.7 264Z" fill="#310402" stroke="#310402"></path><path d="M492.3 365L528.3 291L422.7 336Z" fill="#450101" stroke="#450101"></path><path d="M437.7 264L437.7 114L397.7 221Z" fill="#350402" stroke="#350402"></path><path d="M397.7 221L284 142L340 237Z" fill="#410201" stroke="#410201"></path><path d="M340 237L177.3 290L360 382Z" fill="#2e0402" stroke="#2e0402"></path><path d="M437.7 114L284 142L397.7 221Z" fill="#240000" stroke="#240000"></path><path d="M570.3 167L437.7 114L437.7 264Z" fill="#240000" stroke="#240000"></path><path d="M284 142L252.3 161L340 237Z" fill="#390302" stroke="#390302"></path><path d="M342 412L463.7 460L360 382Z" fill="#490000" stroke="#490000"></path><path d="M492.3 365L598 331L528.3 291Z" fill="#490000" stroke="#490000"></path><path d="M252.3 161L177.3 290L340 237Z" fill="#390302" stroke="#390302"></path><path d="M528.3 291L570.3 167L437.7 264Z" fill="#350402" stroke="#350402"></path><path d="M284 142L205.3 111L252.3 161Z" fill="#2a0301" stroke="#2a0301"></path><path d="M437.7 114L339 60L284 142Z" fill="#3d0302" stroke="#3d0302"></path><path d="M408.7 0L339 60L437.7 114Z" fill="#490000" stroke="#490000"></path><path d="M570.3 167L538.3 118L437.7 114Z" fill="#310402" stroke="#310402"></path><path d="M524.3 458L598 331L492.3 365Z" fill="#2e0402" stroke="#2e0402"></path><path d="M528.3 291L632 187L570.3 167Z" fill="#490000" stroke="#490000"></path><path d="M177.3 290L193.3 401L360 382Z" fill="#350402" stroke="#350402"></path><path d="M342 412L411.7 540L463.7 460Z" fill="#450101" stroke="#450101"></path><path d="M463.7 460L524.3 458L492.3 365Z" fill="#310402" stroke="#310402"></path><path d="M339 60L205.3 111L284 142Z" fill="#390302" stroke="#390302"></path><path d="M252.3 161L137.7 179L177.3 290Z" fill="#270201" stroke="#270201"></path><path d="M193.3 401L222.3 462L342 412Z" fill="#410201" stroke="#410201"></path><path d="M205.3 111L137.7 179L252.3 161Z" fill="#450101" stroke="#450101"></path><path d="M177.3 290L82.7 383L193.3 401Z" fill="#450101" stroke="#450101"></path><path d="M598 331L632 187L528.3 291Z" fill="#3d0302" stroke="#3d0302"></path><path d="M570.3 167L637 86L538.3 118Z" fill="#310402" stroke="#310402"></path><path d="M287 540L411.7 540L342 412Z" fill="#410201" stroke="#410201"></path><path d="M463.7 460L507.3 540L524.3 458Z" fill="#390302" stroke="#390302"></path><path d="M545.3 0L437.7 114L538.3 118Z" fill="#410201" stroke="#410201"></path><path d="M545.3 0L408.7 0L437.7 114Z" fill="#2a0301" stroke="#2a0301"></path><path d="M339 60L328 0L205.3 111Z" fill="#490000" stroke="#490000"></path><path d="M137.7 179L103.7 282L177.3 290Z" fill="#450101" stroke="#450101"></path><path d="M88.7 486L221.3 540L222.3 462Z" fill="#270201" stroke="#270201"></path><path d="M222.3 462L287 540L342 412Z" fill="#310402" stroke="#310402"></path><path d="M408.7 0L328 0L339 60Z" fill="#450101" stroke="#450101"></path><path d="M655 540L626 431L524.3 458Z" fill="#3d0302" stroke="#3d0302"></path><path d="M524.3 458L626 431L598 331Z" fill="#350402" stroke="#350402"></path><path d="M598 331L675 281L632 187Z" fill="#350402" stroke="#350402"></path><path d="M411.7 540L507.3 540L463.7 460Z" fill="#240000" stroke="#240000"></path><path d="M723.7 327L675 281L598 331Z" fill="#450101" stroke="#450101"></path><path d="M88.7 486L222.3 462L193.3 401Z" fill="#490000" stroke="#490000"></path><path d="M222.3 462L221.3 540L287 540Z" fill="#490000" stroke="#490000"></path><path d="M184.3 0L147.7 70L205.3 111Z" fill="#270201" stroke="#270201"></path><path d="M205.3 111L147.7 70L137.7 179Z" fill="#2e0402" stroke="#2e0402"></path><path d="M0 206L0 244L103.7 282Z" fill="#490000" stroke="#490000"></path><path d="M0 339L82.7 383L103.7 282Z" fill="#410201" stroke="#410201"></path><path d="M103.7 282L82.7 383L177.3 290Z" fill="#490000" stroke="#490000"></path><path d="M718.7 152L637 86L632 187Z" fill="#350402" stroke="#350402"></path><path d="M632 187L637 86L570.3 167Z" fill="#410201" stroke="#410201"></path><path d="M637 86L545.3 0L538.3 118Z" fill="#350402" stroke="#350402"></path><path d="M328 0L184.3 0L205.3 111Z" fill="#3d0302" stroke="#3d0302"></path><path d="M626 431L723.7 327L598 331Z" fill="#390302" stroke="#390302"></path><path d="M675 281L718.7 152L632 187Z" fill="#310402" stroke="#310402"></path><path d="M723.7 327L732.7 283L675 281Z" fill="#410201" stroke="#410201"></path><path d="M732.7 283L718.7 152L675 281Z" fill="#2a0301" stroke="#2a0301"></path><path d="M637 86L637 0L545.3 0Z" fill="#2e0402" stroke="#2e0402"></path><path d="M82.7 383L88.7 486L193.3 401Z" fill="#410201" stroke="#410201"></path><path d="M787.7 0L637 0L637 86Z" fill="#2a0301" stroke="#2a0301"></path><path d="M850.3 219L731.7 128L718.7 152Z" fill="#2a0301" stroke="#2a0301"></path><path d="M718.7 152L731.7 128L637 86Z" fill="#450101" stroke="#450101"></path><path d="M507.3 540L655 540L524.3 458Z" fill="#490000" stroke="#490000"></path><path d="M626 431L748.7 439L723.7 327Z" fill="#450101" stroke="#450101"></path><path d="M0 206L137.7 179L0 82Z" fill="#310402" stroke="#310402"></path><path d="M0 206L103.7 282L137.7 179Z" fill="#410201" stroke="#410201"></path><path d="M82.7 383L0 430L88.7 486Z" fill="#310402" stroke="#310402"></path><path d="M0 244L0 339L103.7 282Z" fill="#410201" stroke="#410201"></path><path d="M0 82L137.7 179L147.7 70Z" fill="#2e0402" stroke="#2e0402"></path><path d="M184.3 0L105.7 0L147.7 70Z" fill="#490000" stroke="#490000"></path><path d="M88.7 486L91.7 540L221.3 540Z" fill="#490000" stroke="#490000"></path><path d="M0 540L91.7 540L88.7 486Z" fill="#3d0302" stroke="#3d0302"></path><path d="M655 540L748.7 439L626 431Z" fill="#310402" stroke="#310402"></path><path d="M723.7 327L815.3 391L732.7 283Z" fill="#450101" stroke="#450101"></path><path d="M732.7 283L836.3 241L718.7 152Z" fill="#350402" stroke="#350402"></path><path d="M0 339L0 430L82.7 383Z" fill="#2e0402" stroke="#2e0402"></path><path d="M105.7 0L0 82L147.7 70Z" fill="#2a0301" stroke="#2a0301"></path><path d="M655 540L734.7 540L748.7 439Z" fill="#410201" stroke="#410201"></path><path d="M833.3 442L815.3 391L748.7 439Z" fill="#350402" stroke="#350402"></path><path d="M748.7 439L815.3 391L723.7 327Z" fill="#270201" stroke="#270201"></path><path d="M815.3 391L836.3 241L732.7 283Z" fill="#450101" stroke="#450101"></path><path d="M731.7 128L787.7 0L637 86Z" fill="#2a0301" stroke="#2a0301"></path><path d="M0 430L0 540L88.7 486Z" fill="#240000" stroke="#240000"></path><path d="M105.7 0L0 0L0 82Z" fill="#310402" stroke="#310402"></path><path d="M960 246L850.3 219L836.3 241Z" fill="#390302" stroke="#390302"></path><path d="M836.3 241L850.3 219L718.7 152Z" fill="#3d0302" stroke="#3d0302"></path><path d="M850.3 219L823.3 86L731.7 128Z" fill="#270201" stroke="#270201"></path><path d="M734.7 540L833.3 442L748.7 439Z" fill="#350402" stroke="#350402"></path><path d="M960 353L960 246L836.3 241Z" fill="#270201" stroke="#270201"></path><path d="M823.3 86L787.7 0L731.7 128Z" fill="#240000" stroke="#240000"></path><path d="M734.7 540L890.3 540L833.3 442Z" fill="#2e0402" stroke="#2e0402"></path><path d="M960 353L836.3 241L815.3 391Z" fill="#2e0402" stroke="#2e0402"></path><path d="M960 68L885.3 0L823.3 86Z" fill="#350402" stroke="#350402"></path><path d="M823.3 86L885.3 0L787.7 0Z" fill="#2e0402" stroke="#2e0402"></path><path d="M960 186L823.3 86L850.3 219Z" fill="#350402" stroke="#350402"></path><path d="M960 353L815.3 391L833.3 442Z" fill="#450101" stroke="#450101"></path><path d="M960 475L960 353L833.3 442Z" fill="#450101" stroke="#450101"></path><path d="M960 246L960 186L850.3 219Z" fill="#270201" stroke="#270201"></path><path d="M890.3 540L960 475L833.3 442Z" fill="#490000" stroke="#490000"></path><path d="M960 186L960 68L823.3 86Z" fill="#2a0301" stroke="#2a0301"></path><path d="M890.3 540L960 540L960 475Z" fill="#3d0302" stroke="#3d0302"></path><path d="M960 68L960 0L885.3 0Z" fill="#390302" stroke="#390302"></path></g></svg>